# AST/ASF file generated using VICON BodyLanguage
# -----------------------------------------------
:version 1.10
:name VICON
:units
  mass 1.0
  length 0.45
  angle deg
:documentation
   .ast/.asf automatically generated from VICON data using
   VICON BodyBuilder and BodyLanguage model FoxedUp or BRILLIANT.MOD
:root
   order TX TY TZ RX RY RZ
   axis XYZ
   position 0 0 0  
   orientation 0 0 0 
:bonedata
  begin
     id 1 
     name lhipjoint
     direction 0.561001 -0.76473 0.316963 
     length 2.4722 
     axis 0 0 0  XYZ
  end
  begin
     id 2 
     name lfemur
     direction 0.34202 -0.939693 0  
     length 7.59403  
     axis 0 0 20  XYZ
    dof rx ry rz
    limits (-160.0 20.0)
           (-70.0 70.0)
           (-60.0 70.0)
  end
  begin
     id 3 
     name ltibia
     direction 0.34202 -0.939693 0   
     length 7.89655   
     axis 0 0 20   XYZ
    dof rx
    limits (-10.0 170.0)
  end
  begin
     id 4 
     name lfoot
     direction 0.061296 -0.168409 0.98381   
     length 2.73287   
     axis -90 7.62852e-016 20   XYZ
    dof rx rz
    limits (-45.0 90.0)
           (-70.0 20.0)
  end
  begin
     id 5 
     name ltoes
     direction 1.53547e-011 -4.21984e-011 1   
     length 1.37057   
     axis -90 7.62852e-016 20   XYZ
    dof rx
    limits (-90.0 20.0)
  end
  begin
     id 6 
     name rhipjoint
     direction -0.559611 -0.765599 0.317323   
     length 2.46939  
     axis 0 0 0  XYZ 
  end
  begin
     id 7 
     name rfemur
     direction -0.34202 -0.939693 0   
     length 7.53712   
     axis 0 0 -20   XYZ
    dof rx ry rz
    limits (-160.0 20.0)
           (-70.0 70.0)
           (-70.0 60.0)
  end
  begin
     id 8 
     name rtibia
     direction -0.34202 -0.939693 0   
     length 8.12549   
     axis 0 0 -20   XYZ
    dof rx
    limits (-10.0 170.0)
 end
 begin
     id 9 
     name rfoot
     direction -0.066984 -0.184037 0.980634   
     length 2.67541  
     axis -90 -7.62852e-016 -20   XYZ
    dof rx rz
    limits (-45.0 90.0)
           (-20.0 70.0)
  end
  begin
     id 10 
     name rtoes
     direction -1.53549e-011 -4.21786e-011 1   
     length 1.34085   
     axis -90 -7.62852e-016 -20   XYZ
    dof rx
    limits (-90.0 20.0)
  end
  begin
     id 11 
     name lowerback
     direction -0.0522728 0.992594 -0.109658   
     length 2.05633   
     axis 0 0 0   XYZ
    dof rx ry rz
    limits (-20.0 45.0)
           (-30.0 30.0)
           (-30.0 30.0)
  end
  begin
     id 12 
     name upperback
     direction 0.00589338 0.999977 0.00335704   
     length 2.05845   
     axis 0 0 0   XYZ
    dof rx ry rz
    limits (-20.0 45.0)
           (-30.0 30.0)
           (-30.0 30.0)
  end
  begin
     id 13 
     name thorax
     direction 0.0292928 0.998059 0.0549487   
     length 2.09281   
     axis 0 0 0   XYZ
    dof rx ry rz
    limits (-20.0 45.0)
           (-30.0 30.0)
           (-30.0 30.0)
  end
  begin
     id 14 
     name lowerneck
     direction 0.0356368 0.980775 0.191858   
     length 1.84767   
     axis 0 0 0   XYZ
    dof rx ry rz
    limits (-20.0 45.0)
           (-30.0 30.0)
           (-30.0 30.0)
  end
  begin
     id 15 
     name upperneck
     direction -0.0227605 0.98931 -0.14404   
     length 1.89582   
     axis 0 0 0   XYZ
    dof rx ry rz
    limits (-20.0 45.0)
           (-30.0 30.0)
           (-30.0 30.0)
  end
  begin
     id 16
     name head
     direction -0.00932985 0.997511 -0.0698904  
     length 1.90213  
     axis 0 0 0   XYZ
    dof rx ry rz
    limits (-20.0 45.0)
           (-30.0 30.0)
           (-30.0 30.0)
  end
  begin
     id 17 
     name lclavicle
     direction 0.873442 0.479511 0.0846686  
     length 3.41193  
     axis 0 0 0   XYZ
    dof ry rz
    limits (-20.0 10.0)
           (0.0 20.0)
  end
  begin
     id 18 
     name lhumerus
     direction 1 -4.4897e-011 -5.62117e-018   
     length 5.59864   
     axis 180 -30 -90   XYZ
    dof rx ry rz
    limits (-60.0 90.0)
           (-90.0 90.0)
           (-90.0 90.0)
  end
  begin
     id 19
     name lradius
     direction 1 -4.48966e-011 -6.26295e-027   
     length 3.59542   
     axis 180 -30 -90   XYZ
    dof rx
    limits (-10.0 170.0)
  end
  begin
     id 20
     name lwrist
     direction 1 -4.48947e-011 -1.74096e-026   
     length 1.79771   
     axis 1.04567e-014 90 90   XYZ
    dof ry
    limits (-180.0 0.0)
 end
  begin
     id 21 
     name lhand
     direction 1 -4.49085e-011 -3.48469e-026   
     length 0.572014   
     axis 2.22196e-014 90 90   XYZ
    dof rx rz
    limits (-90.0 90.0)
           (-45.0 45.0)
  end
  begin
     id 22 
     name lfingers
     direction 1 -4.48884e-011 -6.96135e-026   
     length 0.461173   
     axis 4.44383e-014 90 90   XYZ
    dof rx
    limits (0.0 90.0)
  end
  begin
     id 23
     name lthumb
     direction 0.707107 -6.34976e-011 0.707107   
     length 0.662154   
     axis -90 45 -5.4397e-014   XYZ
    dof rx rz
    limits (-45.0 45.0)
           (-45.0 45.0)
  end
  begin
     id 24 
     name rclavicle
     direction -0.890242 0.443271 0.104786   
     length 3.46753  
     axis 0 0 0   XYZ 
    dof ry rz
    limits (-10.0 20.0)
           (-20.0 0.0)
  end
  begin
     id 25 
     name rhumerus
     direction -1 -4.48963e-011 -5.41723e-018  
     length 5.8094   
     axis 180 30 90   XYZ
    dof rx ry rz
    limits (-90.0 60.0)
           (-90.0 90.0)
           (-90.0 90.0)
  end
  begin
     id 26 
     name rradius
     direction -1 -4.48958e-011 -6.51059e-027   
     length 3.66953   
     axis 180 30 90   XYZ
    dof rx
    limits (-10.0 170.0)
  end
  begin
     id 27 
     name rwrist
     direction -1 -4.48975e-011 -1.74124e-026   
     length 1.83476   
     axis 1.04567e-014 -90 -90   XYZ
    dof ry
    limits (-180.0 0.0)
  end
  begin
     id 28
     name rhand
     direction -1 -4.49013e-011 -3.48326e-026   
     length 0.57843   
     axis 2.22196e-014 -90 -90   XYZ
    dof rx rz
    limits (-90.0 90.0)
           (-45.0 45.0)
  end
  begin
     id 29
     name rfingers
     direction -1 -4.49023e-011 -6.9669e-026   
     length 0.466345   
     axis 4.44383e-014 -90 -90   XYZ
    dof rx
    limits (0.0 90.0)
  end
  begin
     id 30
     name rthumb
     direction -0.707107 -6.34926e-011 0.707107   
     length 0.669581   
     axis -90 -45 5.4397e-014   XYZ
    dof rx rz
    limits (-45.0 45.0)
           (-45.0 45.0)
  end
:hierarchy
  begin
    root lhipjoint rhipjoint lowerback
    lhipjoint lfemur
    lfemur ltibia
    ltibia lfoot
    lfoot ltoes
    rhipjoint rfemur
    rfemur rtibia
    rtibia rfoot
    rfoot rtoes
    lowerback upperback
    upperback thorax
    thorax lowerneck lclavicle rclavicle
    lowerneck upperneck
    upperneck head
    lclavicle lhumerus
    lhumerus lradius
    lradius lwrist
    lwrist lhand lthumb
    lhand lfingers
    rclavicle rhumerus
    rhumerus rradius
    rradius rwrist
    rwrist rhand rthumb
    rhand rfingers
  end

#!OML:ASF H:\SkateBoarding\Project 1\Capture day 1\Session 1\Skater.ASF
:FULLY-SPECIFIED
:DEGREES
1
root -2.58988 19.4206 -30.9257 -5.91637 51.9339 -7.46625
lowerback 9.22467 -1.35352 -6.17252
upperback -0.687239 -2.53368 -1.00084
thorax -5.68571 -1.06723 2.76919
lowerneck -17.2571 -5.162 -1.75905
upperneck 37.1657 -9.2699 6.46409
head 16.8105 -2.96059 1.44798
rclavicle 2.10712e-014 1.43125e-014
rhumerus -35.2855 16.115 -96.848
rradius 53.0674
rwrist -17.6901
rhand -34.9206 -7.57797
rfingers 7.12502
rthumb -8.06816 -37.404
lclavicle 2.10712e-014 1.43125e-014
lhumerus -31.7126 4.26395 82.1807
lradius 25.7011
lwrist 18.1413
lhand -26.3697 30.277
lfingers 7.12502
lthumb 0.188698 60.2566
rfemur -21.2632 -3.88417 24.5938
rtibia 42.5685
rfoot -28.9605 -2.46067
rtoes -4.47555
lfemur 1.56185 -0.609044 -14.3437
ltibia 29.8529
lfoot -47.0692 -4.88424
ltoes 16.1084
2
root -2.56834 19.451 -30.6347 -5.27182 51.7069 -7.39771
lowerback 8.5913 -1.50951 -6.08065
upperback -0.93211 -2.69621 -1.00226
thorax -5.57488 -1.15017 2.71823
lowerneck -17.1084 -5.07074 -1.74817
upperneck 37.2316 -9.08946 6.34073
head 16.7844 -2.90601 1.43133
rclavicle -4.22914e-014 1.59028e-015
rhumerus -35.7695 15.3995 -96.8128
rradius 52.5872
rwrist -18.6057
rhand -33.7849 -6.94013
rfingers 7.12502
rthumb -6.97191 -36.8053
lclavicle -4.22914e-014 1.59028e-015
lhumerus -32.0302 4.60276 82.1771
lradius 25.6702
lwrist 17.8089
lhand -25.6981 28.7392
lfingers 7.12502
lthumb 0.837318 58.7173
rfemur -21.623 -3.85563 24.6709
rtibia 42.1111
rfoot -28.5067 -2.34999
rtoes -4.33605
lfemur 0.915585 -0.328793 -14.3565
ltibia 30.275
lfoot -47.4372 -2.40275
ltoes 14.0898
3
root -2.5472 19.4811 -30.3433 -4.69108 51.4959 -7.35706
lowerback 7.98713 -1.65912 -5.93885
upperback -1.14864 -2.84734 -1.01569
thorax -5.45417 -1.23001 2.62379
lowerneck -17.0195 -5.00493 -1.69355
upperneck 37.3425 -8.941 6.14817
head 16.7914 -2.86494 1.36938
rclavicle 1.03865e-014 -1.43125e-014
rhumerus -36.1779 14.863 -96.9325
rradius 52.0297
rwrist -19.1298
rhand -34.1097 -7.51898
rfingers 7.12502
rthumb -7.28546 -37.3736
lclavicle 1.03865e-014 -1.43125e-014
lhumerus -32.6077 3.93683 82.5196
lradius 26.3513
lwrist 18.6546
lhand -25.196 27.6389
lfingers 7.12502
lthumb 1.32224 57.6146
rfemur -21.9264 -3.83898 24.7797
rtibia 41.6245
rfoot -28.0139 -2.28095
rtoes -4.08891
lfemur 0.285925 -0.0252035 -14.3448
ltibia 30.742
lfoot -47.7608 -0.18883
ltoes 11.7879
4
root -2.52648 19.5069 -30.0557 -4.01089 51.3531 -7.2259
lowerback 7.3289 -1.80536 -5.87283
upperback -1.32601 -2.99537 -1.01103
thorax -5.2574 -1.30882 2.58485
lowerneck -16.9746 -4.89403 -1.67423
upperneck 37.3718 -8.71235 5.97468
head 16.765 -2.79528 1.33472
rclavicle 6.67668e-014 -1.43125e-014
rhumerus -36.4129 14.2163 -96.8762
rradius 51.2959
rwrist -19.5239
rhand -34.9895 -7.93377
rfingers 7.12502
rthumb -8.13466 -37.7572
lclavicle 6.67668e-014 -1.43125e-014
lhumerus -32.7003 4.57702 82.3436
lradius 26.0482
lwrist 18.1073
lhand -24.5495 26.1698
lfingers 7.12502
lthumb 1.94669 56.1407
rfemur -22.2018 -3.90919 24.817
rtibia 41.14
rfoot -27.6842 -2.01907
rtoes -4.03632
lfemur -0.389608 0.230251 -14.4073
ltibia 31.1969
lfoot -47.9756 1.87534
ltoes 9.36723
5
root -2.50562 19.5347 -29.7651 -3.40869 51.0601 -7.14704
lowerback 6.6965 -1.87765 -5.77285
upperback -1.51032 -3.04496 -1.00929
thorax -5.09254 -1.33889 2.51305
lowerneck -16.854 -4.87871 -1.40651
upperneck 37.3778 -8.65347 5.64222
head 16.6919 -2.78512 1.15402
rclavicle 1.29061e-013 -1.59028e-015
rhumerus -36.6064 13.3603 -96.8135
rradius 50.3444
rwrist -19.4693
rhand -34.4143 -8.31401
rfingers 7.12502
rthumb -7.57951 -38.1582
lclavicle 1.29061e-013 -1.59028e-015
lhumerus -33.0118 3.89477 82.8458
lradius 26.6032
lwrist 18.9477
lhand -23.5924 24.2364
lfingers 7.12502
lthumb 2.87101 54.1968
rfemur -22.4776 -3.73434 24.8987
rtibia 40.6441
rfoot -27.3774 -1.93738
rtoes -4.40055
lfemur -0.954065 0.474751 -14.4377
ltibia 31.6464
lfoot -48.2302 3.7905
ltoes 7.22561
